<svg xmlns="http://www.w3.org/2000/svg" width="26" height="26"  xmlns:xlink="http://www.w3.org/1999/xlink" viewBox="0 0 26 26" version="1.1">
<g id="surface1">
<path style="fill: #FBA0BE" d="M 4 0 C 1.796875 0 0 1.796875 0 4 L 0 17 C 0 19.203125 1.796875 21 4 21 L 9 21 L 9 19 L 4 19 C 2.894531 19 2 18.105469 2 17 L 2 4 C 2 2.894531 2.894531 2 4 2 L 8.28125 2 C 9.003906 2.183594 9 3.050781 9 3.9375 L 9 6 C 9 6.25 9.097656 6.480469 9.25 6.65625 C 9.808594 5.117188 11.269531 4 13 4 L 13.0625 4 C 12.886719 3.824219 12.707031 3.644531 12.53125 3.46875 C 12.285156 3.222656 12.019531 2.992188 11.78125 2.75 C 10.070313 1.003906 9.0625 0 8 0 Z M 14 5 C 11.796875 5 10 6.796875 10 9 L 10 22 C 10 24.203125 11.796875 26 14 26 L 22 26 C 24.203125 26 26 24.203125 26 22 L 26 13 C 26 11.9375 25.027344 10.929688 23.28125 9.21875 C 23.039063 8.980469 22.777344 8.714844 22.53125 8.46875 C 22.285156 8.222656 22.019531 7.992188 21.78125 7.75 C 20.070313 6.003906 19.0625 5 18 5 Z M 14 7 L 18.28125 7 C 19.003906 7.183594 19 8.050781 19 8.9375 L 19 11 C 19 11.550781 19.449219 12 20 12 L 22 12 C 22.996094 12 24 12.003906 24 13 L 24 22 C 24 23.105469 23.105469 24 22 24 L 14 24 C 12.894531 24 12 23.105469 12 22 L 12 9 C 12 7.894531 12.894531 7 14 7 Z M 4 8 L 4 10 L 9 10 L 9 8 Z M 4 11 L 4 13 L 9 13 L 9 11 Z M 14 13 L 14 15 L 22 15 L 22 13 Z M 4 14 L 4 16 L 9 16 L 9 14 Z M 14 16 L 14 18 L 20 18 L 20 16 Z M 14 19 L 14 21 L 22 21 L 22 19 Z "></path>
</g>
</svg>